<svg id="圖層_1" data-name="圖層 1" xmlns="http://www.w3.org/2000/svg" viewBox="0 0 587.38 285.36"><defs><style>.cls-1{fill:#fff;}</style></defs><title>180207</title><path class="cls-1" d="M12.84,194.57V144.74H23.19v49.83Z"/><path class="cls-1" d="M64.3,194.57V163.3c0-6.06-1.66-9.58-7.24-9.58-7.33,0-12.7,7.72-12.7,17.39v23.46H33.91V146h10a63.63,63.63,0,0,1-.68,9.48l.1.09C46.12,149.32,52,145,60.2,145c11,0,14.46,6.94,14.46,15.54v34Z"/><path class="cls-1" d="M91.55,195.23a55.76,55.76,0,0,1-10.41-1l.3-9a39.93,39.93,0,0,0,10.71,1.59c5.75,0,9.71-2.49,9.71-6.55,0-9.91-21.61-4-21.61-21,0-8.53,6.94-15.26,20.33-15.26a58.56,58.56,0,0,1,9.21.89l-.29,8.62a34.85,34.85,0,0,0-9.62-1.39c-5.85,0-8.72,2.38-8.72,6.16,0,9.51,21.81,4.65,21.81,21C113,188.49,104.74,195.23,91.55,195.23Z"/><path class="cls-1" d="M120.83,194.57V144.74h10.34v49.83Z"/><path class="cls-1" d="M164.42,195.33c-14.95,0-25.77-8.43-25.77-24.72,0-15,10.34-26.63,27.68-26.63a54.31,54.31,0,0,1,15.62,2.3l-1.82,9a37.18,37.18,0,0,0-13.7-2.68c-9.3,0-16.76,5.84-16.76,17.15,0,10.63,6.41,16.48,15.71,16.48a28.31,28.31,0,0,0,7.28-1V168.5H183V192A50.82,50.82,0,0,1,164.42,195.33Z"/><path class="cls-1" d="M224.93,194.57V173.48H201.46v21.09H191.1V144.74h10.36v19.83h23.47V144.74h10.35v49.83Z"/><path class="cls-1" d="M264.48,153.56v41H254.14v-41h-13.8v-8.82h38v8.82Z"/><path class="cls-1" d="M354.48,179.34c-1.06,0-3.07-.11-4.12-.2v15.43H338V144.74c4.4-.19,11.5-.29,17.63-.29,13.12,0,20.6,6,20.6,16.67C376.23,172.33,367.12,179.34,354.48,179.34Zm.28-25c-1.43,0-3.26,0-4.4.09v14.85a24.09,24.09,0,0,0,3.83.28c5.37,0,8.91-2.77,8.91-7.75C363.1,157.68,360.32,154.33,354.76,154.33Z"/><path class="cls-1" d="M381.78,194.57V144.74h12.37v38.9h16.19v10.93Z"/><path class="cls-1" d="M490.21,155.76c-8.82-1.82-13.22,3.93-13.22,17.16v21.65H464.72V144.74h11.6a63.81,63.81,0,0,1-.86,9.59h.19c2.3-6.05,6.89-11.31,15.14-10.64Z"/><path class="cls-1" d="M566.47,155.76c-8.82-1.82-13.23,3.93-13.23,17.16v21.65H541V144.74h11.59a62.52,62.52,0,0,1-.86,9.59h.19c2.3-6.05,6.9-11.31,15.14-10.64Z"/><path class="cls-1" d="M435.17,145a25.07,25.07,0,1,0,25.06,25.07A25.07,25.07,0,0,0,435.17,145Zm0,38.64a13.58,13.58,0,1,1,13.57-13.57A13.58,13.58,0,0,1,435.17,183.62Z"/><path class="cls-1" d="M579,188.74a6.28,6.28,0,0,1-6.25,6.23,6.19,6.19,0,0,1-6.29-6.23,6.26,6.26,0,0,1,6.29-6.23A6.18,6.18,0,0,1,579,188.74Zm-10.81,0a4.65,4.65,0,0,0,4.56,4.67,4.57,4.57,0,0,0,4.55-4.58,4.63,4.63,0,0,0-4.55-4.67A4.56,4.56,0,0,0,568.19,188.71Zm5.46,3.25-1.5-2.7H572V192h-1.4v-6.49h2.25c1.59,0,2.21.68,2.21,1.7a1.72,1.72,0,0,1-1.5,1.85,9.88,9.88,0,0,1,.54.86l1.22,2.08Zm-1-5.41H572v1.8h.39c.88,0,1.2-.52,1.2-1S573.37,186.55,572.63,186.55Z"/><path class="cls-1" d="M333.75,144.74H323.06c-7.36,7.83-13.93,14.94-19.24,20.92a60,60,0,0,1,2.47-5.47l-11.45-15.45H278l19.51,25.2-20,24.63h16.18l11.79-16.29,12,16.29H335l-20-25.3Z"/><path class="cls-1" d="M308.53,156.33s19.86-49.26,144.4-147.78C452.93,8.55,347.61,112.3,308.53,156.33Z"/><path class="cls-1" d="M534.56,171.64a41.73,41.73,0,0,0,.39-5.72c0-12.14-6.31-21.92-20.63-21.92-14.7,0-23,11.07-23,26.07,0,17.27,8.69,25.07,24.29,25.07A48.83,48.83,0,0,0,533.18,192l1-11.66c-4.24,2.42-9.69,5-16.46,5-7.49,0-11.89-3-13.14-9.25h0c0-.11,0-.22,0-.33a19.53,19.53,0,0,1-.29-2.65,55.06,55.06,0,0,1,.18-10h0c0-.12,0-.24.05-.37s0-.35,0-.35h0c.89-5.5,4.44-9,9.45-9,5.34,0,8.69,3.65,8.5,9.76h0l-14.87,10.77Z"/><path class="cls-1" d="M21,254.42l-.18,2.09H44v16.12h-7v-1.81h-11v1.81H19.46v-11.5a35.2,35.2,0,0,1-3.94,11.11l-6-5.61q4.78-7.69,4.78-20v-8.52l-2.06,1.43-2.66-7.09A43,43,0,0,0,25.38,222H30.9a165.19,165.19,0,0,1,15.66,9.07l-3.92,5.45v17.88Zm18.94-19.26q-3-2.41-7-5.12c-2.71-1.79-4.11-2.69-4.23-2.69a38.68,38.68,0,0,1-9.45,7.81h7.33a15.56,15.56,0,0,0-2.36-2.8l6.29-2.26A28.28,28.28,0,0,1,34,235.16ZM21.27,249.25H36V247H21.33ZM36,240.39H21.39v2.26H36Zm1.1,21.46h-11v3.63h11Zm9.49-1.6V225.54h6.85v34.71Zm9.69-38.13h7.2v42.37q0,4.72-1.63,6.1c-1.09.91-3,1.38-5.75,1.38H49.59L48,264.38l6.35.49c1.29,0,1.94-.59,1.94-1.76Z"/><path class="cls-1" d="M101.83,235.16v6.05h19.79v19q0,6.72-7.08,6.71H107l-1.33-7,5.93.28c1.33,0,2-.59,2-1.76V247.93H101.83v24.7h-8v-24.7H82.71v19.25h-8v-26H93.78v-6.05H70.85v-6.71h22.2a24,24,0,0,0-3.5-5.22L98.32,222a31,31,0,0,1,3.57,6.43h23.42v6.71Z"/><path class="cls-1" d="M148,233q1.22-.65,3.93-4.46a22.19,22.19,0,0,0,3.52-6.65l6.47.6-1,2.09h7.38A32,32,0,0,0,174,235.18a17.4,17.4,0,0,0,3.88-5.23h-6.66v-5.39h13.61v5a28.5,28.5,0,0,1-6.53,9.63c0,.19,1,1,3,2.31a28.76,28.76,0,0,0,5.82,3.14l-3.33,5.45a30.21,30.21,0,0,1-7.33-4.9v2.48h-18v-2.54a30.1,30.1,0,0,1-7.08,4.79l-3.57-3.58a18.58,18.58,0,0,1,1,6.17q0,8-7.5,8a6.14,6.14,0,0,1-2.25-.33v12.49h-6.71V223.78h16.76v5.62A20.31,20.31,0,0,1,148,233Zm-5.51-3.13H139.1v10.45A57.27,57.27,0,0,0,142.48,229.9Zm-3.38,11.77v12.05a5,5,0,0,0,1.51.22c1.49,0,2.24-.79,2.24-2.37Q142.85,247,139.1,241.67Zm21.48,18.26a41.17,41.17,0,0,1-11.38,10.46l-5.08-5a29.24,29.24,0,0,0,10.89-8.8ZM144.9,241a45.53,45.53,0,0,1,2.43,4.4,24,24,0,0,0,4.78-2.65,31.53,31.53,0,0,0-3.94-2.8l1.52-1.38-2.42-3.35Q145.76,239.08,144.9,241Zm26,25c0,4.22-2.27,6.33-6.78,6.33h-5l-1.33-6.6,3.58,0c1.37,0,2.06-.57,2.06-1.71v-7.65H150.11V250.8h34.44v5.55H170.93Zm-18.64-29a27.63,27.63,0,0,1,3.81,2.63,12.81,12.81,0,0,0,2.06-2,31.6,31.6,0,0,0-4.18-2.42Zm4.72-5.51a27.91,27.91,0,0,1,4.12,2.2,12.43,12.43,0,0,0,1.93-3.63h-5Zm9.92,3a23.74,23.74,0,0,1-5.44,7.87H173.1A26.85,26.85,0,0,1,166.93,234.35Zm14.41,36a80,80,0,0,0-9.26-10.18l5-3.52a81.19,81.19,0,0,1,9.62,9.08Z"/><path class="cls-1" d="M244.7,233.64v7.15h21.54v19.74q0,3.75-1.45,5t-5.38,1.27h-6.66l-1.34-5.44,7.21.27c1.33,0,2-.59,2-1.76v-14.2H244.7v26.86h-5.63V245.68H223.58v21.4h-5.64V240.74h21.13v-7.16H214.14v-5h25.42a53.69,53.69,0,0,0-3.21-5.5l5.38-1.21a42.73,42.73,0,0,1,3.27,6.71h24.87v5Z"/><path class="cls-1" d="M275.38,262.94l-.73-5.5c1.26-.41,2.51-.77,3.76-1.09a28.17,28.17,0,0,0,3-1.06V239.35h-6.23v-4.63h6.23V222h5.45v12.7h5.38v4.63h-5.38v14q3.57-1.49,5.2-2.36v3.36q6.78-3.09,9.75-6.28H291.05v-4.23h39.34v4.23H307.94a12.87,12.87,0,0,1-2.61,3h23.13q-.49,13-2.25,17.17t-9.13,4.18c-1.05,0-2-.05-2.73-.12l-1.87-4.84a26.56,26.56,0,0,0,3.62.23,7.71,7.71,0,0,0,4.12-.78c.73-.51,1.31-2,1.76-4.34a48.84,48.84,0,0,0,.78-7.27H321.5q-5.4,11.57-20.64,17.12l-3.45-3.85q12.82-4.46,18.64-13.27h-4.24q-6.53,8.21-20.94,13l-3.39-3.95q11.81-3.3,18-9.14H300.8a56.4,56.4,0,0,1-9.68,4.84l-2.24-2.42A113.21,113.21,0,0,1,275.38,262.94Zm51.38-21.73h-31.9V223.5h31.9Zm-5.57-13.64H300.43v2.81h20.76Zm-20.76,9.57h20.76v-3.08H300.43Z"/><path class="cls-1" d="M356.35,241.65v28.28h-5V267h-5.93v4.19h-5V250a35.38,35.38,0,0,1-3.33,4.4L335,248.25a43.65,43.65,0,0,0,9.62-18.49h-8.17v-4.84H358v4.84h-7.87a41.44,41.44,0,0,1-4.23,11.89Zm-5,4.62h-5.93v16.12h5.93Zm38.37-21.68v4.46h-5.33v13.31h6.48V247h-6.48v25.59h-5.44V247h-8.54q-.12,16.13-9.08,25.48l-4.54-3.68q8.42-6.88,8.42-21.41V247h-6.72v-4.62h6.78V229.05h-5.38v-4.46ZM379,229.05h-8.53v13.31H379Z"/><path class="cls-1" d="M437.32,250.24l-.6,14.25c0,1.25.69,1.87,2,1.87h3.76c1.29,0,2.12-.37,2.48-1.1s.54-3.21.54-7.44v-.66l5.87,1.6v1.1c0,5.5-.63,8.78-1.87,9.85s-3.29,1.59-6.12,1.59h-6q-6.58,0-6.59-5.77V265l.48-10.12h-9.86q-2.49,14-22.63,17.77l-3.15-4.74q17.85-3.24,20-13H398.78v-4.62h17.67l.24-7.43h5.69l-.24,7.43Zm-16.46-15.63q-6.35,10.84-22.27,12.27l-2.54-4.68q14.76-1.69,19.73-9.29Zm-17.66-3.35V238h-5.76v-11.5h22c-.62-1.17-1.36-2.47-2.25-3.9l6.24-.6c.93,1.53,1.75,3,2.47,4.5H448.7V238h-5.81v-6.76Zm29.71,2.25v4.62c0,2.06,1.15,3.08,3.45,3.08h14.28v4.63H435.27c-2.87,0-4.92-.5-6.18-1.5s-1.87-2.92-1.87-5.82v-5Z"/><path class="cls-1" d="M485.32,270.08H470.67v2.48h-4.48V252.81L465,254.24l-1.45-4a103.08,103.08,0,0,1-2.66,21.84l-4.73-2.69q2.55-7.71,2.55-29.32V224.2h1.15q14,0,23-2.09l2.29,4.29q-8,1.82-21.54,2V231h21.24v11.06H463.65v7.65a16,16,0,0,0,5-7.32l3.88,1.43-1.4,2.48h5.21a14,14,0,0,0-1.94-3l4.24-.83a22.35,22.35,0,0,1,2.3,3.8h5.26v3.62h-5.5v3h4.9v3.25h-4.9v3.3h4.9v3.3h-4.9v3.58h5.62v1.75a22.39,22.39,0,0,0,7.63-6.27l4,1.92a35.34,35.34,0,0,1-10.17,8.75Zm-5.45-35.31H463.65v3.57h16.22Zm-3.57,18.15v-3h-5.63v3Zm0,6.55v-3.3h-5.63v3.3Zm0,6.88v-3.58h-5.63v3.58Zm11.49-34.17h7.15a22.22,22.22,0,0,0,1.45-4.24H486.34v-4.18h25.54v4.18H501.59q-.24.78-.6,2c-.2.73-.45,1.47-.73,2.2h9v28.88H487.79Zm16.41,4H492.88v4.13H504.2Zm-11.32,12.33H504.2V244H492.88Zm0,8.52H504.2V252.2H492.88Zm15.55,15.41q-6.29-6.22-8.77-8.31l3.38-2.26a112.55,112.55,0,0,1,8.78,7.32Z"/><path class="cls-1" d="M542,244.25H524.39v28.34h-5.56V223.73H542ZM536.49,228h-12.1v3.86h12.1ZM524.39,240h12.1v-4.08h-12.1Zm7.81,8h24.63v16.17H532.2Zm19.24,4.34H537.58v7.49h13.86Zm11.38,14.47c1.37,0,2.06-.59,2.06-1.76v-20.8H546.72V223.73h23.72v41.76c0,2.43-.38,4.07-1.15,5s-2.28,1.31-4.54,1.31h-8.46l-1.4-5.23Zm-10.59-34.93h12.65V228H552.23Zm12.65,4H552.23V240h12.65Z"/><path class="cls-1" d="M208.64,231.84A8.18,8.18,0,0,1,200.5,240a8.05,8.05,0,0,1-8.19-8.11,8.15,8.15,0,0,1,8.19-8.11A8,8,0,0,1,208.64,231.84Zm-14.07,0a6,6,0,0,0,5.93,6.07,6,6,0,0,0,5.92-6,6,6,0,0,0-5.92-6.08A5.93,5.93,0,0,0,194.57,231.81Zm7.11,4.22-2-3.52h-.15V236h-1.81v-8.45h2.92c2.08,0,2.89.89,2.89,2.22a2.25,2.25,0,0,1-2,2.41,10,10,0,0,1,.7,1.12l1.59,2.7Zm-1.33-7h-.78v2.33h.52c1.15,0,1.56-.67,1.56-1.3S201.31,229,200.35,229Z"/></svg>