<?xml version="1.0" encoding="utf-8"?>
<!-- Generator: Adobe Illustrator 23.0.2, SVG Export Plug-In . SVG Version: 6.00 Build 0)  -->
<svg version="1.1" id="Layer_1" xmlns="http://www.w3.org/2000/svg" xmlns:xlink="http://www.w3.org/1999/xlink" x="0px" y="0px"
	 viewBox="0 0 244.4 116.1" style="enable-background:new 0 0 244.4 116.1;" xml:space="preserve">
<style type="text/css">
	.st0{fill:#FFFFFF;}
</style>
<g>
	<g>
		<path class="st0" d="M73.3,116c-2.2-0.1-3.8-2.1-3.8-4.1V82.4c0-4.3,3.4-7.7,7.7-7.7h8.9c7.7,0,14.3,6.1,14.5,13.7
			c0.3,8-6.2,14.6-14.2,14.6h-7.1c-0.9,0-1.6,0.7-1.6,1.6v7.2C77.6,114.2,75.7,116.2,73.3,116z M79.3,94.9h6.9
			c3.2,0,6.1-2.5,6.2-5.8c0.3-3.5-2.5-6.3-6.1-6.3h-7.1c-0.9,0-1.6,0.7-1.6,1.6v9C77.6,94.3,78.4,94.9,79.3,94.9z"/>
	</g>
	<path class="st0" d="M37.9,96.5c-0.6-0.7-0.6-1.8,0-2.5l10.8-12.5c1.5-1.8,1.2-4.3-0.6-5.8s-4.3-1.2-5.8,0.6l-8.7,11.1
		c-0.7,1-2.2,1-3.1,0l-8.7-11.1c-1.5-1.8-4-2.1-5.8-0.6c-1.8,1.5-2.1,4-0.6,5.8L26.2,94c0.6,0.7,0.6,1.8,0,2.5l-10.8,12.7
		c-1.5,1.8-1.2,4.3,0.6,5.8c0.7,0.6,1.6,0.9,2.5,0.9c1.2,0,2.4-0.4,3.1-1.5l8.7-11.1c0.7-1,2.2-1,3.1,0l8.7,11.1
		c0.7,1,1.9,1.5,3.1,1.5c0.9,0,1.8-0.3,2.5-0.9c1.8-1.5,2.1-4,0.6-5.8L37.9,96.5z"/>
	<g>
		<path class="st0" d="M59.3,91.7c2.2,0,4-1.8,4-4s-1.8-4-4-4s-4,1.8-4,4S57.1,91.7,59.3,91.7z"/>
		<path class="st0" d="M59.3,100.8c-2.2,0-4,1.8-4,4s1.8,4,4,4s4-1.8,4-4C63.3,102.6,61.5,100.8,59.3,100.8z"/>
	</g>
	<path class="st0" d="M134.7,110.3l-13.4-33.4l0,0c0-0.1,0-0.1-0.1-0.3v-0.1l-0.1-0.1c0,0,0-0.1-0.1-0.1l-0.1-0.1c0,0,0-0.1-0.1-0.1
		l-0.1-0.1l-0.1-0.1l-0.1-0.1l-0.1-0.1l-0.1-0.1c0,0-0.1,0-0.1-0.1c0,0-0.1,0-0.1-0.1c0,0-0.1,0-0.1-0.1c0,0-0.1,0-0.1-0.1
		c0,0-0.1,0-0.1-0.1l0,0h-0.1c0,0-0.1,0-0.3-0.1h-0.1h-0.1h-0.1H119h-0.1h-0.1h-0.1h-0.1h-0.1h-0.1h-0.1h-0.1h-1.5h-0.1l0,0
		c0,0-0.1,0-0.1,0.1c0,0-0.1,0-0.1,0.1c0,0-0.1,0-0.1,0.1c0,0-0.1,0-0.1,0.1c0,0-0.1,0-0.1,0.1l-0.1,0.1c0,0,0,0-0.1,0.1l-0.1,0.1
		l-0.1,0.1l-0.1,0.1l-0.1,0.1l-0.1,0.1c0,0,0,0.1-0.1,0.1c0,0,0,0.1-0.1,0.1c0,0,0,0.1-0.1,0.1c0,0,0,0.1-0.1,0.1l0,0L101.6,110
		c-0.9,2.1,0.1,4.4,2.2,5.3c0.4,0.1,1,0.3,1.5,0.3c1.6,0,3.1-1,3.8-2.5l1.3-3.2c0.3-0.6,0.9-1,1.6-1h12.7c0.7,0,1.3,0.4,1.6,1
		l1.3,3.2c0.6,1.6,2.2,2.5,3.8,2.5c0.4,0,1-0.1,1.5-0.3C134.6,114.7,135.6,112.3,134.7,110.3z M113.5,99.5l3.2-8.1
		c0.3-0.7,1.3-0.7,1.6,0l3.2,8.1c0.3,0.6-0.1,1.2-0.9,1.2h-6.5C113.6,100.8,113.2,100.1,113.5,99.5z"/>
	<g>
		<path class="st0" d="M144.9,116c-2.2-0.1-3.8-2.1-3.8-4.1V81.1c0-2.8,1.8-5.3,4.4-6.1c2.7-0.7,5.5,0.3,6.9,2.8l13,22
			c0.4,0.7,1.5,0.4,1.5-0.4V79c0-2.2,1.6-4,3.8-4.1c2.4-0.1,4.3,1.8,4.3,4v30.7c0,2.8-1.8,5.3-4.4,6.1c-2.7,0.7-5.5-0.3-6.9-2.8
			l-13-22c-0.4-0.7-1.5-0.4-1.5,0.4v20.8C149.4,114.2,147.4,116.2,144.9,116z"/>
	</g>
	<path class="st0" d="M206,99.8c2.4,0,4.1-1.9,4-4.3c-0.1-2.2-2.1-3.8-4.1-3.8h-12.2c-1.3,0-2.5-1-2.5-2.5v-3.5c0-1.3,1-2.5,2.5-2.5
		h12.2c2.2,0,4-1.6,4.1-3.8c0.1-2.4-1.8-4.3-4-4.3h-17.7c-3,0-5.3,2.4-5.3,5.3v30.1c0,3,2.4,5.3,5.3,5.3h17.6c2.2,0,4-1.6,4.1-3.8
		c0.1-2.4-1.8-4.3-4-4.3h-12.4c-1.3,0-2.5-1-2.5-2.5v-2.7c0-1.3,1-2.5,2.5-2.5H206L206,99.8L206,99.8z"/>
	<g>
		<path class="st0" d="M240.4,115.6h-17.3c-3,0-5.3-2.4-5.3-5.3V79.5c0-2.2,1.6-4,3.8-4.1c2.4-0.1,4.3,1.8,4.3,4v25.7
			c0,1.3,1,2.5,2.5,2.5h11.8c2.2,0,4,1.6,4.1,3.8C244.6,113.6,242.6,115.6,240.4,115.6z"/>
	</g>
	<path class="st0" d="M7.8,78.7L7.8,78.7c0-2.2-1.8-4-4-4l0,0c-2.2,0-3.8,1.8-3.8,4l0,0c0,1.5,0.7,2.7,1.9,3.4
		c0.7,0.4,1.3,1.3,1.3,2.2v0.1c0,0.9-0.4,1.8-1.2,2.2c-1,0.6-1.8,1.8-1.8,3.1v22.7c0,2.1,1.6,3.7,3.7,3.7l0,0c2.1,0,3.7-1.6,3.7-3.7
		V89.8c0-1.3-0.7-2.5-1.8-3.1c-0.9-0.7-1.3-1.5-1.3-2.4v-0.1c0-0.9,0.4-1.8,1.3-2.2C7.1,81.5,7.8,80.1,7.8,78.7z"/>
</g>
</svg>
