<?xml version="1.0" encoding="utf-8"?>
<!-- Generator: Adobe Illustrator 18.1.1, SVG Export Plug-In . SVG Version: 6.00 Build 0)  -->
<svg version="1.1" id="Layer_1" xmlns="http://www.w3.org/2000/svg" xmlns:xlink="http://www.w3.org/1999/xlink" x="0px" y="0px"
	 viewBox="-464 430 371 181" enable-background="new -464 430 371 181" xml:space="preserve">
<g>
	<path fill="#F8FFF9" d="M-98.7,435c0.4,0,0.7,0.3,0.7,0.7v169.6c0,0.4-0.3,0.7-0.7,0.7h-359.6c-0.4,0-0.7-0.3-0.7-0.7V435.7
		c0-0.4,0.3-0.7,0.7-0.7H-98.7 M-98.7,430h-359.6c-3.2,0-5.7,2.6-5.7,5.7v169.6c0,3.2,2.6,5.7,5.7,5.7h359.6c3.2,0,5.7-2.6,5.7-5.7
		V435.7C-93,432.6-95.6,430-98.7,430z"/>
	<path fill="#FFB24D" d="M-458.3,435h359.6c0.4,0,0.7,0.3,0.7,0.7v130.6h-361V435.7C-459,435.3-458.7,435-458.3,435z"/>
	<g>
		<path fill="#F8FFF9" d="M-306.1,491.5c-1.2,0-2.3-0.4-3.1-1.2c-0.8-0.8-1.2-1.9-1.2-3.3v-31.5c0-1.1,0.3-2,1-2.7
			c0.7-0.7,1.6-1,2.7-1h12.2c2.2,0,4.1,0.3,5.8,0.9c1.7,0.6,3.1,1.5,4.3,2.6c1.2,1.1,2.1,2.5,2.7,4c0.6,1.5,0.9,3.3,0.9,5.2
			c0,1.9-0.3,3.6-0.9,5.1c-0.6,1.5-1.5,2.9-2.7,4c-1.2,1.1-2.7,2-4.4,2.6c-1.7,0.6-3.6,0.9-5.7,0.9h-7c-0.2,0-0.3,0.1-0.3,0.3v9.6
			c0,1.4-0.4,2.4-1.2,3.3C-303.9,491.1-304.9,491.5-306.1,491.5z M-295,469.6c1.8,0,3.2-0.5,4.2-1.4c1-0.9,1.5-2.2,1.5-3.9
			c0-1.6-0.5-2.9-1.5-3.9c-1-1-2.4-1.5-4.2-1.5h-6.5c-0.2,0-0.3,0.1-0.3,0.3v9.9c0,0.2,0.1,0.3,0.3,0.3H-295z"/>
		<path fill="#F8FFF9" d="M-272.4,455.8c0-1.4,0.4-2.4,1.2-3.3c0.8-0.8,1.8-1.2,3.1-1.2c1.2,0,2.3,0.4,3,1.2
			c0.8,0.8,1.2,1.9,1.2,3.3v13.2l13.1-15.9c1-1.2,2.2-1.9,3.5-1.9c1,0,1.9,0.3,2.7,1c0.8,0.7,1.1,1.6,1.1,2.7c0,1-0.3,2-1,2.7
			l-8.5,9.8l10,17.2c0.5,0.9,0.8,1.8,0.8,2.6c0,1.1-0.4,2.1-1.1,2.9c-0.8,0.8-1.7,1.2-2.9,1.2c-1.7,0-3.1-0.8-4.1-2.5l-8.3-14.9
			l-5.2,6.6v6.3c0,1.4-0.4,2.4-1.2,3.3c-0.8,0.8-1.8,1.2-3.1,1.2s-2.3-0.4-3.1-1.2c-0.8-0.8-1.2-1.9-1.2-3.3L-272.4,455.8
			L-272.4,455.8z"/>
	</g>
	<g>
		<rect x="-458" y="566.9" fill="#F8FFF9" width="359" height="38"/>
		<path fill="#FFB24D" d="M-100,567.9v36h-357v-36H-100 M-98,565.9h-361v39.3c0,0.4,0.3,0.7,0.7,0.7h359.6c0.4,0,0.7-0.3,0.7-0.7
			V565.9L-98,565.9z"/>
	</g>
</g>
</svg>
