<?xml version="1.0" encoding="utf-8"?>
<!-- Generator: Adobe Illustrator 18.1.1, SVG Export Plug-In . SVG Version: 6.00 Build 0)  -->
<!DOCTYPE svg PUBLIC "-//W3C//DTD SVG 1.1//EN" "http://www.w3.org/Graphics/SVG/1.1/DTD/svg11.dtd">
<svg version="1.1" id="Layer_1" xmlns="http://www.w3.org/2000/svg" xmlns:xlink="http://www.w3.org/1999/xlink" x="0px" y="0px"
	 viewBox="0.3 101.5 244.4 41.9" enable-background="new 0.3 101.5 244.4 41.9" xml:space="preserve">
<g>
	<g>
		<path fill="#FFFFFF" d="M73.6,143.3c-2.2-0.1-3.8-2.1-3.8-4.1v-29.5c0-4.3,3.4-7.7,7.7-7.7h8.9c7.7,0,14.3,6.1,14.5,13.7
			c0.3,8-6.2,14.6-14.2,14.6h-7.1c-0.9,0-1.6,0.7-1.6,1.6v7.2C77.9,141.5,76,143.5,73.6,143.3z M79.6,122.2h6.9
			c3.2,0,6.1-2.5,6.2-5.8c0.3-3.5-2.5-6.3-6.1-6.3h-7.1c-0.9,0-1.6,0.7-1.6,1.6v9C77.9,121.6,78.7,122.2,79.6,122.2z"/>
	</g>
	<path fill="#FFFFFF" d="M38.2,123.8c-0.6-0.7-0.6-1.8,0-2.5L49,108.8c1.5-1.8,1.2-4.3-0.6-5.8c-1.8-1.5-4.3-1.2-5.8,0.6l-8.7,11.1
		c-0.7,1-2.2,1-3.1,0l-8.7-11.1c-1.5-1.8-4-2.1-5.8-0.6c-1.8,1.5-2.1,4-0.6,5.8l10.8,12.5c0.6,0.7,0.6,1.8,0,2.5l-10.8,12.7
		c-1.5,1.8-1.2,4.3,0.6,5.8c0.7,0.6,1.6,0.9,2.5,0.9c1.2,0,2.4-0.4,3.1-1.5l8.7-11.1c0.7-1,2.2-1,3.1,0l8.7,11.1
		c0.7,1,1.9,1.5,3.1,1.5c0.9,0,1.8-0.3,2.5-0.9c1.8-1.5,2.1-4,0.6-5.8L38.2,123.8z"/>
	<g>
		<path fill="#FFFFFF" d="M59.6,119c2.2,0,4-1.8,4-4c0-2.2-1.8-4-4-4c-2.2,0-4,1.8-4,4C55.6,117.2,57.4,119,59.6,119z"/>
		<path fill="#FFFFFF" d="M59.6,128.1c-2.2,0-4,1.8-4,4c0,2.2,1.8,4,4,4c2.2,0,4-1.8,4-4C63.6,129.9,61.8,128.1,59.6,128.1z"/>
	</g>
	<path fill="#FFFFFF" d="M135,137.6l-13.4-33.4l0,0c0-0.1,0-0.1-0.1-0.3v-0.1l-0.1-0.1c0,0,0-0.1-0.1-0.1l-0.1-0.1
		c0,0,0-0.1-0.1-0.1l-0.1-0.1l-0.1-0.1l-0.1-0.1l-0.1-0.1l-0.1-0.1c0,0-0.1,0-0.1-0.1c0,0-0.1,0-0.1-0.1c0,0-0.1,0-0.1-0.1
		c0,0-0.1,0-0.1-0.1c0,0-0.1,0-0.1-0.1l0,0h-0.1c0,0-0.1,0-0.3-0.1h-0.1h-0.1h-0.1h-0.1h-0.1h-0.1h-0.1h-0.1h-0.1h-0.1h-0.1h-0.1
		H117h-0.1l0,0c0,0-0.1,0-0.1,0.1c0,0-0.1,0-0.1,0.1c0,0-0.1,0-0.1,0.1c0,0-0.1,0-0.1,0.1c0,0-0.1,0-0.1,0.1l-0.1,0.1
		c0,0,0,0-0.1,0.1l-0.1,0.1l-0.1,0.1l-0.1,0.1l-0.1,0.1l-0.1,0.1c0,0,0,0.1-0.1,0.1c0,0,0,0.1-0.1,0.1c0,0,0,0.1-0.1,0.1
		c0,0,0,0.1-0.1,0.1l0,0l-13.4,33.4c-0.9,2.1,0.1,4.4,2.2,5.3c0.4,0.1,1,0.3,1.5,0.3c1.6,0,3.1-1,3.8-2.5l1.3-3.2
		c0.3-0.6,0.9-1,1.6-1H125c0.7,0,1.3,0.4,1.6,1l1.3,3.2c0.6,1.6,2.2,2.5,3.8,2.5c0.4,0,1-0.1,1.5-0.3
		C134.9,142,135.9,139.6,135,137.6z M113.8,126.8l3.2-8.1c0.3-0.7,1.3-0.7,1.6,0l3.2,8.1c0.3,0.6-0.1,1.2-0.9,1.2h-6.5
		C113.9,128.1,113.5,127.4,113.8,126.8z"/>
	<g>
		<path fill="#FFFFFF" d="M145.2,143.3c-2.2-0.1-3.8-2.1-3.8-4.1v-30.8c0-2.8,1.8-5.3,4.4-6.1c2.7-0.7,5.5,0.3,6.9,2.8l13,22
			c0.4,0.7,1.5,0.4,1.5-0.4v-20.4c0-2.2,1.6-4,3.8-4.1c2.4-0.1,4.3,1.8,4.3,4v30.7c0,2.8-1.8,5.3-4.4,6.1c-2.7,0.7-5.5-0.3-6.9-2.8
			l-13-22c-0.4-0.7-1.5-0.4-1.5,0.4v20.8C149.7,141.5,147.7,143.5,145.2,143.3z"/>
	</g>
	<path fill="#FFFFFF" d="M206.3,127.1c2.4,0,4.1-1.9,4-4.3c-0.1-2.2-2.1-3.8-4.1-3.8h-12.2c-1.3,0-2.5-1-2.5-2.5v-3.5
		c0-1.3,1-2.5,2.5-2.5h12.2c2.2,0,4-1.6,4.1-3.8c0.1-2.4-1.8-4.3-4-4.3h-17.7c-3,0-5.3,2.4-5.3,5.3v30.1c0,3,2.4,5.3,5.3,5.3h17.6
		c2.2,0,4-1.6,4.1-3.8c0.1-2.4-1.8-4.3-4-4.3h-12.4c-1.3,0-2.5-1-2.5-2.5v-2.7c0-1.3,1-2.5,2.5-2.5h12.4V127.1z"/>
	<g>
		<path fill="#FFFFFF" d="M240.7,142.9h-17.3c-3,0-5.3-2.4-5.3-5.3v-30.8c0-2.2,1.6-4,3.8-4.1c2.4-0.1,4.3,1.8,4.3,4v25.7
			c0,1.3,1,2.5,2.5,2.5h11.8c2.2,0,4,1.6,4.1,3.8C244.9,140.9,242.9,142.9,240.7,142.9z"/>
	</g>
	<path fill="#FFFFFF" d="M8.1,106L8.1,106c0-2.2-1.8-4-4-4l0,0c-2.2,0-3.8,1.8-3.8,4l0,0c0,1.5,0.7,2.7,1.9,3.4
		c0.7,0.4,1.3,1.3,1.3,2.2v0.1c0,0.9-0.4,1.8-1.2,2.2c-1,0.6-1.8,1.8-1.8,3.1v22.7c0,2.1,1.6,3.7,3.7,3.7l0,0c2.1,0,3.7-1.6,3.7-3.7
		v-22.6c0-1.3-0.7-2.5-1.8-3.1c-0.9-0.7-1.3-1.5-1.3-2.4v-0.1c0-0.9,0.4-1.8,1.3-2.2C7.4,108.8,8.1,107.4,8.1,106z"/>
</g>
</svg>
