<?xml version="1.0" encoding="utf-8"?>
<!-- Generator: Adobe Illustrator 16.0.4, SVG Export Plug-In . SVG Version: 6.00 Build 0)  -->
<!DOCTYPE svg PUBLIC "-//W3C//DTD SVG 1.1//EN" "http://www.w3.org/Graphics/SVG/1.1/DTD/svg11.dtd">
<svg version="1.1" id="Layer_1" xmlns="http://www.w3.org/2000/svg" xmlns:xlink="http://www.w3.org/1999/xlink" x="0px" y="0px"
	 width="39px" height="39px" viewBox="0 0 39 39" enable-background="new 0 0 39 39" xml:space="preserve">
<g>
	<path fill="#A3D15A" d="M37.926,19.5c0,10.176-8.249,18.425-18.426,18.425c-10.176,0-18.426-8.249-18.426-18.425
		S9.324,1.075,19.5,1.075C29.677,1.075,37.926,9.324,37.926,19.5"/>
	<path fill="#F8FFF9" d="M19.5,1.074v1c4.814,0,9.165,1.949,12.321,5.104c3.155,3.157,5.104,7.507,5.104,12.322
		c-0.001,4.814-1.949,9.165-5.104,12.321c-3.156,3.155-7.507,5.104-12.321,5.104c-4.815-0.001-9.165-1.949-12.322-5.104
		C4.023,28.665,2.075,24.314,2.074,19.5c0-4.815,1.949-9.165,5.104-12.322c3.157-3.155,7.506-5.104,12.322-5.104V1.074v-1
		C8.771,0.075,0.075,8.771,0.074,19.5c0,10.729,8.697,19.425,19.426,19.426c10.729-0.001,19.425-8.697,19.426-19.426
		C38.925,8.771,30.229,0.075,19.5,0.074V1.074z"/>
	<path fill="#F8FFF9" d="M22.153,13.022l-6.625,5.809c-0.218,0.191-0.343,0.47-0.341,0.759c0.002,0.289,0.131,0.566,0.352,0.753
		l6.625,5.644c0.42,0.358,1.052,0.309,1.409-0.112c0.358-0.42,0.309-1.052-0.112-1.409l-5.744-4.894l5.754-5.046
		c0.415-0.364,0.457-0.996,0.093-1.411C23.2,12.699,22.568,12.658,22.153,13.022z"/>
</g>
</svg>
