<?xml version="1.0" encoding="utf-8"?>
<!-- Generator: Adobe Illustrator 16.0.4, SVG Export Plug-In . SVG Version: 6.00 Build 0)  -->
<!DOCTYPE svg PUBLIC "-//W3C//DTD SVG 1.1//EN" "http://www.w3.org/Graphics/SVG/1.1/DTD/svg11.dtd">
<svg version="1.1" id="Layer_1" xmlns="http://www.w3.org/2000/svg" xmlns:xlink="http://www.w3.org/1999/xlink" x="0px" y="0px"
	 width="39px" height="39px" viewBox="0 0 39 39" enable-background="new 0 0 39 39" xml:space="preserve">
<g>
	<path fill="#A3D15A" d="M1.074,19.5C1.074,9.324,9.323,1.075,19.5,1.075c10.176,0,18.426,8.249,18.426,18.425
		S29.676,37.925,19.5,37.925C9.323,37.925,1.074,29.676,1.074,19.5"/>
	<path fill="#F8FFF9" d="M19.5,1.074v1c4.814,0,9.165,1.949,12.321,5.104c3.155,3.157,5.104,7.507,5.104,12.322
		c-0.001,4.814-1.949,9.165-5.104,12.321c-3.156,3.155-7.507,5.104-12.321,5.104c-4.815-0.001-9.165-1.949-12.322-5.104
		C4.023,28.665,2.075,24.314,2.074,19.5c0-4.815,1.949-9.165,5.104-12.322c3.157-3.155,7.506-5.104,12.322-5.104V1.074v-1
		C8.771,0.075,0.075,8.771,0.074,19.5c0,10.729,8.697,19.425,19.426,19.426c10.729-0.001,19.425-8.697,19.426-19.426
		C38.925,8.771,30.229,0.075,19.5,0.074V1.074z"/>
	<path fill="#F8FFF9" d="M16.847,25.979l6.625-5.81c0.218-0.191,0.343-0.47,0.341-0.759c-0.002-0.289-0.131-0.566-0.352-0.754
		l-6.625-5.644c-0.42-0.358-1.052-0.308-1.41,0.113s-0.308,1.052,0.113,1.41l5.744,4.893l-5.755,5.047
		c-0.416,0.364-0.457,0.996-0.093,1.411S16.432,26.343,16.847,25.979z"/>
</g>
</svg>
