<?xml version="1.0" encoding="utf-8"?>
<!-- Generator: Adobe Illustrator 16.0.4, SVG Export Plug-In . SVG Version: 6.00 Build 0)  -->
<!DOCTYPE svg PUBLIC "-//W3C//DTD SVG 1.1//EN" "http://www.w3.org/Graphics/SVG/1.1/DTD/svg11.dtd">
<svg version="1.1" id="Layer_1" xmlns="http://www.w3.org/2000/svg" xmlns:xlink="http://www.w3.org/1999/xlink" x="0px" y="0px"
	 width="56px" height="56px" viewBox="0 0 56 56" enable-background="new 0 0 56 56" xml:space="preserve">
<g>
	<path fill="#FFFFFF" d="M28.057,17.081c-6.02,0-10.917,4.899-10.917,10.918c0,6.021,4.899,10.92,10.917,10.92
		c6.023,0,10.92-4.897,10.92-10.92C38.979,21.979,34.08,17.081,28.057,17.081z"/>
	<path fill="#FFE44C" d="M38.811,28l13.17-13.169c3-3.001,3-7.868,0-10.869c-3.002-2.999-7.869-2.999-10.869,0l-13.17,13.17
		L14.772,3.961c-3.002-2.999-7.868-2.999-10.869,0c-3,3.001-3,7.868,0,10.869L17.073,28L3.903,41.17c-3,3.001-3,7.867,0,10.868
		c1.501,1.499,3.468,2.25,5.435,2.25c1.967,0,3.933-0.751,5.435-2.25l13.168-13.171l13.17,13.171c1.502,1.499,3.469,2.25,5.435,2.25
		s3.935-0.751,5.435-2.25c3-3.001,3-7.867,0-10.868L38.811,28z"/>
	<path fill="#A3D15A" d="M38.811,28l0.814,0.814l13.17-13.169c1.723-1.723,2.59-3.989,2.588-6.247
		c0.002-2.258-0.861-4.528-2.588-6.251c-1.725-1.724-3.99-2.589-6.248-2.587c-2.257-0.002-4.525,0.862-6.249,2.586L27.941,15.501
		L15.586,3.147c-1.723-1.725-3.991-2.589-6.249-2.588c-2.258-0.002-4.526,0.863-6.25,2.588C1.368,4.866,0.499,7.132,0.5,9.39
		c-0.001,2.259,0.863,4.53,2.588,6.256L15.444,28L3.088,40.354c-1.725,1.727-2.589,4-2.588,6.258
		c-0.001,2.257,0.868,4.521,2.588,6.24c1.723,1.725,3.99,2.592,6.249,2.59c2.258,0,4.526-0.865,6.249-2.59l12.355-12.354
		l12.356,12.354c1.724,1.725,3.989,2.59,6.247,2.59c2.257,0,4.525-0.865,6.249-2.59c1.728-1.723,2.589-3.992,2.588-6.25
		c0.001-2.259-0.866-4.526-2.588-6.246l-13.169-13.17L38.811,28l0.814,0.814L38.811,28l-0.814,0.814l13.171,13.17
		c1.276,1.277,1.91,2.941,1.911,4.615c-0.001,1.678-0.635,3.344-1.911,4.623c-1.278,1.276-2.944,1.911-4.62,1.912
		c-1.675-0.001-3.34-0.636-4.619-1.912L27.941,37.238L13.957,51.223c-1.279,1.277-2.943,1.912-4.619,1.913
		c-1.675-0.001-3.34-0.636-4.619-1.913c-1.276-1.277-1.911-2.938-1.913-4.609c0.001-1.682,0.633-3.348,1.913-4.629L18.703,28
		L4.719,14.016C3.44,12.736,2.808,11.067,2.806,9.39c0.001-1.673,0.637-3.334,1.913-4.612C5.998,3.5,7.663,2.866,9.338,2.864
		c1.676,0.001,3.34,0.635,4.619,1.913l13.984,13.985L41.927,4.777c1.279-1.277,2.944-1.911,4.62-1.912
		c1.676,0.001,3.34,0.636,4.619,1.913c1.275,1.278,1.91,2.944,1.911,4.621c-0.001,1.675-0.636,3.339-1.911,4.617L37.182,28
		l0.813,0.814L38.811,28z"/>
	<rect id="_x3C_Slice_x3E__3_" x="0.5" y="0.559" fill="none" width="55" height="54.881"/>
</g>
</svg>
