<?xml version="1.0" encoding="utf-8"?>
<!-- Generator: Adobe Illustrator 16.0.4, SVG Export Plug-In . SVG Version: 6.00 Build 0)  -->
<!DOCTYPE svg PUBLIC "-//W3C//DTD SVG 1.1//EN" "http://www.w3.org/Graphics/SVG/1.1/DTD/svg11.dtd">
<svg version="1.1" id="Layer_1" xmlns="http://www.w3.org/2000/svg" xmlns:xlink="http://www.w3.org/1999/xlink" x="0px" y="0px"
	 width="56px" height="56px" viewBox="5.5 5.5 56 56" enable-background="new 5.5 5.5 56 56" xml:space="preserve">
<g>
	<path fill="#FFFFFF" d="M33.5,59.843c-14.527,0-26.345-11.817-26.345-26.345c0-14.525,11.818-26.343,26.345-26.343
		s26.344,11.817,26.344,26.343C59.844,48.025,48.026,59.843,33.5,59.843z M33.5,22.558c-6.033,0-10.941,4.908-10.941,10.94
		c0,6.034,4.908,10.943,10.941,10.943c6.034,0,10.941-4.909,10.941-10.943C44.441,27.466,39.534,22.558,33.5,22.558z"/>
	<path fill="#A3D15A" d="M33.5,59.843v-1.153c-6.947-0.001-13.237-2.825-17.803-7.387c-4.564-4.566-7.387-10.855-7.387-17.805
		c0-6.945,2.822-13.235,7.387-17.802C20.263,11.133,26.553,8.31,33.5,8.31s13.238,2.823,17.802,7.387
		c4.563,4.566,7.388,10.856,7.388,17.802c0,6.947-2.825,13.238-7.388,17.805c-4.563,4.562-10.854,7.387-17.802,7.387V59.843v1.155
		c15.168-0.003,27.498-12.332,27.5-27.5C60.998,18.332,48.666,6.002,33.5,6C18.333,6.002,6.003,18.332,6,33.498
		C6.003,48.666,18.333,60.995,33.5,61V59.843z M33.5,22.558v-1.155c-6.673,0.003-12.095,5.424-12.098,12.097
		c0.003,6.675,5.424,12.097,12.098,12.1c6.674-0.003,12.097-5.425,12.098-12.1c-0.001-6.672-5.424-12.094-12.098-12.097V22.558
		v1.156c2.698,0,5.141,1.095,6.916,2.869c1.777,1.776,2.87,4.216,2.87,6.915c0,2.701-1.093,5.141-2.87,6.918
		c-1.775,1.773-4.218,2.87-6.916,2.87c-2.699,0-5.14-1.097-6.917-2.87c-1.774-1.777-2.87-4.217-2.87-6.918
		c0-2.699,1.096-5.139,2.87-6.915c1.777-1.774,4.218-2.869,6.917-2.869V22.558z"/>
	<rect id="_x3C_Slice_x3E__2_" x="6" y="6" fill="none" width="54.882" height="55"/>
</g>
</svg>
