<?xml version="1.0" encoding="utf-8"?>
<!-- Generator: Adobe Illustrator 23.0.2, SVG Export Plug-In . SVG Version: 6.00 Build 0)  -->
<svg version="1.1" id="Layer_1" xmlns="http://www.w3.org/2000/svg" xmlns:xlink="http://www.w3.org/1999/xlink" x="0px" y="0px"
	 viewBox="0 0 245.1 42.4" style="enable-background:new 0 0 245.1 42.4;" xml:space="preserve">
<style type="text/css">
	.st0{fill:#FFFFFF;}
</style>
<g>
	<g>
		<path class="st0" d="M73.7,41.8c-2.2-0.1-3.8-2.1-3.8-4.1V8.2c0-4.3,3.4-7.7,7.7-7.7h8.9c7.7,0,14.3,6.1,14.5,13.7
			c0.3,8-6.2,14.6-14.2,14.6h-7.1c-0.9,0-1.6,0.7-1.6,1.6v7.2C78,40,76.1,42,73.7,41.8z M79.7,20.7h6.9c3.2,0,6.1-2.5,6.2-5.8
			c0.3-3.5-2.5-6.3-6.1-6.3h-7.1c-0.9,0-1.6,0.7-1.6,1.6v9C78,20.1,78.8,20.7,79.7,20.7z"/>
	</g>
	<path class="st0" d="M38.3,22.3c-0.6-0.7-0.6-1.8,0-2.5L49.1,7.3c1.5-1.8,1.2-4.3-0.6-5.8s-4.3-1.2-5.8,0.6L34,13.2
		c-0.7,1-2.2,1-3.1,0L22.2,2.1c-1.5-1.8-4-2.1-5.8-0.6s-2.1,4-0.6,5.8l10.8,12.5c0.6,0.7,0.6,1.8,0,2.5L15.8,35
		c-1.5,1.8-1.2,4.3,0.6,5.8c0.7,0.6,1.6,0.9,2.5,0.9c1.2,0,2.4-0.4,3.1-1.5l8.7-11.1c0.7-1,2.2-1,3.1,0l8.7,11.1
		c0.7,1,1.9,1.5,3.1,1.5c0.9,0,1.8-0.3,2.5-0.9c1.8-1.5,2.1-4,0.6-5.8L38.3,22.3z"/>
	<g>
		<path class="st0" d="M59.7,17.5c2.2,0,4-1.8,4-4s-1.8-4-4-4s-4,1.8-4,4S57.5,17.5,59.7,17.5z"/>
		<path class="st0" d="M59.7,26.6c-2.2,0-4,1.8-4,4s1.8,4,4,4s4-1.8,4-4C63.7,28.4,61.9,26.6,59.7,26.6z"/>
	</g>
	<path class="st0" d="M135.1,36.1L121.7,2.7l0,0c0-0.1,0-0.1-0.1-0.3V2.3l-0.1-0.1c0,0,0-0.1-0.1-0.1L121.3,2c0,0,0-0.1-0.1-0.1
		l-0.1-0.1L121,1.7l-0.1-0.1l-0.1-0.1l-0.1-0.1c0,0-0.1,0-0.1-0.1c0,0-0.1,0-0.1-0.1c0,0-0.1,0-0.1-0.1c0,0-0.1,0-0.1-0.1
		c0,0-0.1,0-0.1-0.1l0,0h-0.1c0,0-0.1,0-0.3-0.1h-0.1h-0.1h-0.1h-0.1h-0.1h-0.1h-0.1H119h-0.1h-0.1h-0.1h-0.1h-1.5H117l0,0
		c0,0-0.1,0-0.1,0.1c0,0-0.1,0-0.1,0.1c0,0-0.1,0-0.1,0.1c0,0-0.1,0-0.1,0.1c0,0-0.1,0-0.1,0.1l-0.1,0.1c0,0,0,0-0.1,0.1l-0.1,0.1
		l-0.1,0.1L116,1.8l-0.1,0.1L115.8,2c0,0,0,0.1-0.1,0.1c0,0,0,0.1-0.1,0.1c0,0,0,0.1-0.1,0.1c0,0,0,0.1-0.1,0.1l0,0L102,35.8
		c-0.9,2.1,0.1,4.4,2.2,5.3c0.4,0.1,1,0.3,1.5,0.3c1.6,0,3.1-1,3.8-2.5l1.3-3.2c0.3-0.6,0.9-1,1.6-1h12.7c0.7,0,1.3,0.4,1.6,1
		l1.3,3.2c0.6,1.6,2.2,2.5,3.8,2.5c0.4,0,1-0.1,1.5-0.3C135,40.5,136,38.1,135.1,36.1z M113.9,25.3l3.2-8.1c0.3-0.7,1.3-0.7,1.6,0
		l3.2,8.1c0.3,0.6-0.1,1.2-0.9,1.2h-6.5C114,26.6,113.6,25.9,113.9,25.3z"/>
	<g>
		<path class="st0" d="M145.3,41.8c-2.2-0.1-3.8-2.1-3.8-4.1V6.9c0-2.8,1.8-5.3,4.4-6.1c2.7-0.7,5.5,0.3,6.9,2.8l13,22
			c0.4,0.7,1.5,0.4,1.5-0.4V4.8c0-2.2,1.6-4,3.8-4.1c2.4-0.1,4.3,1.8,4.3,4v30.7c0,2.8-1.8,5.3-4.4,6.1c-2.7,0.7-5.5-0.3-6.9-2.8
			l-13-22c-0.4-0.7-1.5-0.4-1.5,0.4v20.8C149.8,40,147.8,42,145.3,41.8z"/>
	</g>
	<path class="st0" d="M206.4,25.6c2.4,0,4.1-1.9,4-4.3c-0.1-2.2-2.1-3.8-4.1-3.8h-12.2c-1.3,0-2.5-1-2.5-2.5v-3.5
		c0-1.3,1-2.5,2.5-2.5h12.2c2.2,0,4-1.6,4.1-3.8c0.1-2.4-1.8-4.3-4-4.3h-17.7c-3,0-5.3,2.4-5.3,5.3v30.1c0,3,2.4,5.3,5.3,5.3h17.6
		c2.2,0,4-1.6,4.1-3.8c0.1-2.4-1.8-4.3-4-4.3H194c-1.3,0-2.5-1-2.5-2.5v-2.7c0-1.3,1-2.5,2.5-2.5h12.4V25.6L206.4,25.6z"/>
	<g>
		<path class="st0" d="M240.8,41.4h-17.3c-3,0-5.3-2.4-5.3-5.3V5.3c0-2.2,1.6-4,3.8-4.1c2.4-0.1,4.3,1.8,4.3,4v25.7
			c0,1.3,1,2.5,2.5,2.5h11.8c2.2,0,4,1.6,4.1,3.8C245,39.4,243,41.4,240.8,41.4z"/>
	</g>
	<path class="st0" d="M8.2,4.5L8.2,4.5c0-2.2-1.8-4-4-4l0,0c-2.2,0-3.8,1.8-3.8,4l0,0c0,1.5,0.7,2.7,1.9,3.4C3,8.3,3.6,9.2,3.6,10.1
		v0.1c0,0.9-0.4,1.8-1.2,2.2c-1,0.6-1.8,1.8-1.8,3.1v22.7c0,2.1,1.6,3.7,3.7,3.7l0,0c2.1,0,3.7-1.6,3.7-3.7V15.6
		c0-1.3-0.7-2.5-1.8-3.1c-0.9-0.7-1.3-1.5-1.3-2.4V10c0-0.9,0.4-1.8,1.3-2.2C7.5,7.3,8.2,5.9,8.2,4.5z"/>
</g>
</svg>
