<?xml version="1.0" encoding="utf-8"?>
<!-- Generator: Adobe Illustrator 22.0.1, SVG Export Plug-In . SVG Version: 6.00 Build 0)  -->
<!DOCTYPE svg PUBLIC "-//W3C//DTD SVG 1.1//EN" "http://www.w3.org/Graphics/SVG/1.1/DTD/svg11.dtd">
<svg version="1.1" id="圖層_1" xmlns="http://www.w3.org/2000/svg" xmlns:xlink="http://www.w3.org/1999/xlink" x="0px" y="0px"
	 viewBox="0 0 466.4 100.4" style="enable-background:new 0 0 466.4 100.4;" xml:space="preserve">
<style type="text/css">
	.st0{fill:#FFFFFF;}
</style>
<title>180207</title>
<path class="st0" d="M146.8,87.7c-3.9-0.3-7-3.7-6.9-7.6V26.4c0-7.7,6.3-14,14-14H170c14.1,0,26,11,26.4,25.1
	c0.4,14.3-10.8,26.3-25.2,26.7c-0.3,0-0.5,0-0.8,0h-13c-1.6,0-2.9,1.3-2.9,2.9l0,0v13.2c0,4.1-3.3,7.4-7.4,7.4
	C147,87.8,146.9,87.7,146.8,87.7z M157.6,49.4h12.7c6,0.1,11-4.6,11.4-10.6c0.3-6.1-4.4-11.3-10.6-11.6c-0.2,0-0.4,0-0.6,0h-13
	c-1.6,0-2.9,1.3-2.9,2.9l0,0v16.4C154.6,48.2,155.9,49.5,157.6,49.4C157.5,49.4,157.5,49.4,157.6,49.4L157.6,49.4z"/>
<path class="st0" d="M82.8,52.1c-1-1.2-1-2.8,0-4l19.5-23c2.7-3.3,2.2-8.3-1.1-11c-3.3-2.7-8.3-2.2-11,1.1l0,0L74.3,35.4
	c-1.1,1.4-3,1.6-4.4,0.5c-0.2-0.2-0.4-0.3-0.5-0.5L53.5,15.2c-2.7-3.3-7.6-3.8-11-1.1c-3.3,2.7-3.8,7.6-1.1,11l0,0l19.5,23
	c1,1.2,1,2.8,0,4l-19.5,23c-2.8,3.3-2.4,8.2,0.9,11c3.3,2.8,8.2,2.4,11-0.9c0.1-0.1,0.1-0.2,0.2-0.3l15.9-20.2
	c1.1-1.4,3-1.6,4.4-0.5c0.2,0.2,0.4,0.3,0.5,0.5l15.9,20.2c2.6,3.4,7.5,4,11,1.4c3.4-2.6,4-7.5,1.4-11c-0.1-0.1-0.2-0.2-0.3-0.3
	L82.8,52.1z"/>
<path class="st0" d="M121.2,43.5c4.1,0,7.3-3.3,7.3-7.3c0-4.1-3.3-7.3-7.3-7.3c-4.1,0-7.3,3.3-7.3,7.3c0,0,0,0,0,0
	C113.9,40.2,117.1,43.5,121.2,43.5z"/>
<path class="st0" d="M121.2,60.2c-4,0-7.3,3.3-7.3,7.3c0,4,3.3,7.3,7.3,7.3c4,0,7.3-3.3,7.3-7.3C128.5,63.5,125.2,60.2,121.2,60.2z"
	/>
<path class="st0" d="M259.4,77.2L235,16.5v-0.1c-0.1-0.1-0.1-0.3-0.2-0.4s-0.1-0.2-0.1-0.3l-0.2-0.4c-0.1-0.1-0.1-0.2-0.2-0.3
	s-0.1-0.2-0.2-0.3s-0.1-0.2-0.2-0.3l-0.3-0.3c-0.1-0.1-0.1-0.2-0.2-0.2l-0.3-0.3l-0.2-0.2l-0.3-0.2l-0.2-0.2l-0.3-0.2
	c-0.1-0.1-0.2-0.1-0.3-0.2l-0.3-0.1l-0.4-0.2h-0.1l-0.2-0.1l-0.4-0.1l-0.3-0.1l-0.4-0.1l-0.3-0.1l-0.4-0.1h-0.3h-0.7h-0.4l-0.3,0.1
	l-0.4,0.1l-0.3,0.1l-0.4,0.1c-0.1,0-0.2,0.1-0.4,0.1l-0.2,0.1h-0.1l-0.4,0.2c-0.1,0-0.2,0.1-0.3,0.1l-0.3,0.2
	c-0.1,0.1-0.2,0.1-0.3,0.2l-0.2,0.2c-0.1,0.1-0.2,0.2-0.4,0.3l-0.2,0.2l-0.3,0.3l-0.2,0.2l-0.2,0.3c-0.1,0.1-0.1,0.2-0.2,0.3
	l-0.2,0.3c-0.1,0.1-0.1,0.2-0.2,0.3l-0.2,0.3c0,0.1-0.1,0.2-0.1,0.3s-0.1,0.2-0.2,0.4s0,0.1,0,0.1l-24.5,60.8
	c-1.5,3.8,0.3,8.1,4.1,9.6c0.9,0.4,1.8,0.5,2.8,0.5c3,0,5.7-1.8,6.9-4.6l2.4-6c0.5-1.2,1.6-2,2.9-2h24.4c1.3,0,2.5,0.8,2.9,2l2.4,6
	c1.1,2.8,3.8,4.6,6.9,4.6c0.9,0,1.9-0.2,2.8-0.5C259.1,85.4,261,81,259.4,77.2z M220.7,58.1l6-17.7c0.3-0.8,1.3-1.2,2.2-0.9
	c0.4,0.2,0.7,0.5,0.9,0.9l5.9,17.7c0.3,0.8-0.1,1.8-0.9,2.1c-0.2,0.1-0.4,0.1-0.6,0.1h-11.9c-0.9,0-1.6-0.7-1.6-1.6
	C220.6,58.5,220.6,58.3,220.7,58.1L220.7,58.1z"/>
<path class="st0" d="M278.4,87.9c-3.9-0.4-6.9-3.7-6.8-7.6V24.1c-0.1-5,3.1-9.5,7.9-11c4.8-1.4,9.9,0.7,12.3,5l23.3,41.7
	c1.2,2.1,2.6,1.9,2.6,0.5V20.2c-0.1-3.9,2.9-7.3,6.8-7.6c4-0.2,7.5,2.8,7.7,6.9c0,0.2,0,0.3,0,0.5v55.6c0.1,5-3.1,9.5-7.9,11
	c-4.8,1.4-9.9-0.7-12.3-5l-23.3-39.8c-0.4-0.7-1.2-0.9-1.9-0.5c-0.4,0.3-0.7,0.7-0.7,1.2v38c0,4-3.2,7.3-7.2,7.4
	C278.8,87.9,278.6,87.9,278.4,87.9z"/>
<path class="st0" d="M386.4,57.5c4.1,0,7.4-3.3,7.4-7.4c0-0.2,0-0.3,0-0.5c-0.3-3.9-3.7-7-7.6-6.9h-19.8c-2.5,0-4.5-2-4.5-4.5v-5.9
	c0-2.5,2-4.5,4.5-4.5h21.8c4,0,7.3-3,7.6-6.9c0.3-4.1-2.8-7.6-6.9-7.9c-0.2,0-0.3,0-0.5,0h-31.7c-5.3,0-9.6,4.3-9.6,9.6c0,0,0,0,0,0
	v54.9c0,5.3,4.3,9.6,9.6,9.6l0,0h31.5c4,0,7.3-3,7.6-6.9c0.3-4.1-2.8-7.6-6.9-7.9c-0.2,0-0.3,0-0.5,0h-22.1c-2.5,0-4.5-2-4.5-4.5
	v-5.8c0-2.5,2-4.5,4.5-4.5H386.4z"/>
<path class="st0" d="M448.1,87h-28.2c-5.2-0.1-9.3-4.4-9.2-9.6V21.1c-0.1-3.9,2.8-7.2,6.7-7.6c4-0.2,7.4,2.9,7.6,6.9
	c0,0.2,0,0.3,0,0.5v46.9c0,2.4,1.9,4.4,4.3,4.5h18.6c3.9,0,7.1,3,7.4,6.9c0.3,4-2.6,7.5-6.7,7.9C448.4,87,448.2,87,448.1,87z"/>
<path class="st0" d="M23,34.5V29c0-1.6,0.8-3,2-3.9c1.9-1.5,3-3.8,2.9-6.3c-0.2-4.2-3.8-7.4-8-7.2c-4,0.2-7.2,3.5-7.2,7.5
	c0,2.4,1.1,4.6,3,6c1.2,0.9,2,2.3,2,3.9v5.6c0,1.5-0.8,2.9-1.9,3.8c-1.8,1.4-2.9,3.6-2.9,5.9v36.3c0.1,4.1,3.4,7.3,7.4,7.5
	c4.1,0,7.4-3.3,7.4-7.4V44.1c0-2.3-1-4.5-2.9-5.9C23.7,37.4,23,36,23,34.5z"/>
</svg>
